<?xml version="1.0" encoding="UTF-8"?>
<svg id="Calque_2" data-name="Calque 2" xmlns="http://www.w3.org/2000/svg" viewBox="0 0 334.23 49.45">
  <defs>
    <style>
      .cls-1 {
        fill: #0d2a33;
      }

      .cls-2 {
        fill: #09c9c9;
      }
    </style>
  </defs>
  <g id="Calque_1-2" data-name="Calque 1">
    <g>
      <polygon class="cls-2" points="56.57 7.17 41.72 30.55 36.4 7.17 31.33 7.17 28.57 7.17 6.57 7.17 0 40.01 25.47 40.01 26.64 33.91 8.77 33.91 10.29 26.31 25.56 26.31 26.74 20.35 11.48 20.35 12.9 13.27 29.99 13.27 36.21 40.01 43.67 40.01 64.4 7.17 56.57 7.17"/>
      <polygon class="cls-2" points="60.6 40.01 68.2 40.01 74.77 7.17 67.17 7.17 60.6 40.01"/>
      <path class="cls-1" d="M102.87,9.21c-2.72-1.36-5.86-2.04-9.43-2.04h-14.92v32.83h14.92c3.57,0,6.71-.68,9.43-2.04,2.72-1.36,4.85-3.27,6.38-5.72,1.53-2.45,2.3-5.34,2.3-8.65s-.77-6.2-2.3-8.65c-1.53-2.45-3.66-4.36-6.38-5.72ZM102.51,29.01c-.89,1.55-2.14,2.74-3.75,3.56-1.61.83-3.51,1.24-5.7,1.24h-6.9V13.37h6.9c2.19,0,4.09.42,5.7,1.24,1.61.83,2.86,2.01,3.75,3.54.89,1.53,1.34,3.35,1.34,5.44s-.45,3.87-1.34,5.42Z"/>
      <polygon class="cls-1" points="124.82 26.31 140.06 26.31 140.06 20.35 124.82 20.35 124.82 13.27 142.08 13.27 142.08 7.17 117.27 7.17 117.27 40.01 142.69 40.01 142.69 33.91 124.82 33.91 124.82 26.31"/>
      <polygon class="cls-1" points="171.35 27.09 155.02 7.17 148.74 7.17 148.74 40.01 156.24 40.01 156.24 20.09 172.57 40.01 178.85 40.01 178.85 7.17 171.35 7.17 171.35 27.09"/>
      <polygon class="cls-1" points="182.93 7.17 182.93 13.37 193.44 13.37 193.44 40.01 201.04 40.01 201.04 13.37 211.55 13.37 211.55 7.17 182.93 7.17"/>
    </g>
    <g>
      <polygon class="cls-2" points="243.83 27.2 254.24 27.2 249.04 14.69 243.83 27.2"/>
      <path class="cls-2" d="M323.83,0h-93.21c-5.74,0-10.4,4.66-10.4,10.4v28.64c0,5.75,4.66,10.4,10.4,10.4h93.21c5.75,0,10.4-4.66,10.4-10.4V10.4c0-5.74-4.66-10.4-10.4-10.4ZM259.57,40.01l-2.93-7.04h-15.21l-2.93,7.04h-7.79l14.59-32.83h7.5l14.73,32.83h-7.97ZM294.98,40.01h-24.02V7.17h7.65v26.64h16.37v6.19ZM323.31,40.01h-24.02V7.17h7.65v26.64h16.37v6.19Z"/>
    </g>
  </g>
</svg>